<?xml version="1.0" standalone="no"?>
<!DOCTYPE svg PUBLIC "-//W3C//DTD SVG 20010904//EN"
 "http://www.w3.org/TR/2001/REC-SVG-20010904/DTD/svg10.dtd">
<svg version="1.0" xmlns="http://www.w3.org/2000/svg"
 width="381.000000pt" height="381.000000pt" viewBox="0 0 381.000000 381.000000"
 preserveAspectRatio="xMidYMid meet">
<metadata>
Created by potrace 1.11, written by Peter Selinger 2001-2013
</metadata>
<g transform="translate(0.000000,381.000000) scale(0.100000,-0.100000)"
fill="#000000" stroke="none">
<path d="M707 3418 c-26 -5 -55 -24 -88 -56 l-49 -49 -68 2 -67 2 -87 -91
c-49 -50 -88 -96 -88 -102 0 -15 -23 -24 -59 -24 -46 0 -99 -47 -132 -117 -44
-95 7 -213 99 -225 25 -4 42 -2 42 4 0 17 52 -1 97 -33 23 -16 46 -29 52 -29
6 0 11 -14 11 -30 0 -20 9 -40 25 -56 14 -14 25 -35 25 -47 1 -12 7 -33 15
-47 21 -36 18 -65 -9 -115 -14 -24 -28 -63 -31 -87 -8 -57 -13 -72 -47 -147
-16 -35 -37 -98 -47 -140 -17 -70 -17 -78 -3 -103 9 -16 20 -28 24 -28 4 0 -1
-24 -12 -52 -10 -29 -39 -111 -65 -183 -47 -131 -50 -142 -59 -226 -3 -28 -28
-95 -65 -172 -63 -130 -72 -171 -46 -210 11 -17 12 -31 5 -55 -11 -41 -6 -70
19 -96 l20 -21 -38 -45 c-59 -69 -72 -102 -76 -194 -6 -129 23 -195 104 -240
69 -37 124 -34 353 17 177 40 203 44 318 42 107 -1 137 -5 205 -29 44 -15 96
-29 115 -32 19 -3 46 -7 60 -10 58 -10 312 -13 400 -5 52 5 138 19 190 30 52
12 106 23 120 26 83 16 175 62 184 93 3 9 12 50 21 90 l15 73 -26 45 c-15 25
-43 56 -63 69 -20 12 -49 35 -66 51 l-30 28 42 9 c57 11 64 28 58 136 -6 85
-5 94 24 160 17 38 31 77 31 86 0 9 4 14 9 10 12 -7 51 33 51 52 0 15 38 95
49 103 4 3 22 25 41 50 19 24 53 61 75 81 130 119 135 123 135 89 0 -24 8 -25
38 -4 14 10 22 24 21 37 -4 32 26 77 140 206 31 35 56 69 56 75 1 6 7 10 14 8
19 -4 50 27 66 65 13 31 14 31 95 35 78 3 84 2 104 -23 22 -27 78 -51 157 -68
51 -11 399 -18 415 -8 6 3 25 9 43 12 18 3 51 12 74 21 23 8 50 18 59 21 16 5
20 15 34 94 5 32 2 39 -23 56 -74 52 -529 69 -682 25 -80 -23 -101 -36 -101
-61 0 -15 -12 -18 -74 -19 -74 -2 -75 -2 -81 26 -4 18 -23 38 -58 62 -48 32
-59 34 -147 38 l-96 4 -49 -39 -50 -39 -148 3 c-146 3 -148 3 -156 -19 -20
-53 13 -66 158 -62 l114 3 -37 -38 c-20 -20 -78 -59 -129 -86 -50 -26 -126
-74 -167 -105 -119 -92 -168 -112 -277 -116 l-92 -4 -34 45 c-30 39 -34 52
-36 111 -1 52 -8 79 -33 128 -17 33 -35 64 -41 68 -13 8 -10 89 4 103 16 16
10 40 -37 146 -120 272 -139 302 -226 359 -37 24 -101 52 -162 70 -56 17 -106
33 -112 35 -6 2 -14 22 -18 45 -4 24 -23 76 -43 117 -41 84 -46 141 -18 207 9
21 18 62 19 89 3 47 1 54 -33 88 -40 41 -92 52 -164 37z"/>
<path d="M3661 2882 c-34 -3 -51 -10 -69 -30 -13 -15 -36 -39 -49 -54 -28 -30
-52 -123 -53 -206 0 -39 -8 -69 -34 -120 -38 -75 -52 -145 -33 -160 7 -6 38
-13 70 -17 44 -5 57 -4 57 7 0 7 10 20 23 27 85 53 165 156 211 271 22 53 30
182 13 203 -7 8 -30 30 -52 48 -35 29 -46 34 -84 31z"/>
</g>
</svg>
